<?xml version="1.0" encoding="UTF-8"?>
<svg id="Layer_2" data-name="Layer 2" xmlns="http://www.w3.org/2000/svg" viewBox="0 0 127.9 109.53">
  <defs>
    <style>
      .cls-1 {
        fill: #fff;
      }
    </style>
  </defs>
  <g id="Logo-White">
    <path class="cls-1" d="M92.13,98.79v7.64c0,1.71,1.39,3.1,3.1,3.1h4.01c1.71,0,3.1-1.39,3.1-3.1v-7.64h-10.2Z"/>
    <path class="cls-1" d="M9.42,26.34c2.9-1.15,5.99-1.76,8.94-1.76,7.03,0,12.73,3.33,14.86,8.7,1.57,3.96.97,8.58-1.65,12.69-2.4,3.76-6.27,6.85-10.91,8.69-.9.36-1.81.66-2.74.91v16.4c12.61-2.64,25.35-3.97,37.93-3.97s25.32,1.33,37.93,3.97v-27.31c0-.21.01-.43.04-.65-.46-6.46,3.97-12.98,11.13-16.64v-11.34c0-5.53-3.45-10.28-8.23-11.36C69.36-1.56,41.99-1.56,14.61,4.67c-4.78,1.09-8.23,5.84-8.23,11.36v11.75c.96-.54,1.98-1.02,3.05-1.44Z"/>
    <path class="cls-1" d="M13.83,98.79v7.64c0,1.71,1.39,3.1,3.1,3.1h4.01c1.71,0,3.1-1.39,3.1-3.1v-7.64h-10.2Z"/>
    <path class="cls-1" d="M127.31,34.75c-2.29-5.77-10.62-7.87-18.61-4.7-7.07,2.81-11.49,8.81-10.82,14.15-.05.14-.08.29-.08.45v32.3c-27.96-6.61-55.91-6.61-83.87,0v-24.69c1.73-.2,3.5-.63,5.26-1.33,7.99-3.17,12.6-10.42,10.31-16.19-2.29-5.77-10.62-7.87-18.61-4.7C3.83,32.86-.59,38.86.08,44.2c-.05.14-.08.29-.08.45v44.84c0,2.93,2.37,5.3,5.3,5.3h101.14c2.93,0,5.3-2.37,5.3-5.3v-8.69s0,0,0,0v-28.53c1.73-.2,3.5-.63,5.26-1.33,7.99-3.17,12.6-10.42,10.31-16.19Z"/>
  </g>
</svg>