<svg width="320" height="320" viewBox="0 0 320 320" fill="none" xmlns="http://www.w3.org/2000/svg">
<path d="M127.813 224.241C123.896 215.71 107.852 203.254 103.86 201.457C94.7272 196.353 84.11 194.308 73.6548 195.64C63.1996 196.973 53.4906 201.607 46.0335 208.826C38.5763 216.044 33.7878 225.443 32.4104 235.565C31.0331 245.686 33.144 255.965 38.4156 264.806C43.6873 273.648 51.8252 280.559 61.5673 284.467C71.3094 288.375 82.1113 289.062 92.2978 286.422C102.484 283.781 111.486 277.96 117.908 269.862C124.329 261.764 127.811 251.841 127.813 241.632V68.9413C127.813 68.4738 128.137 68.0687 128.593 67.9658L288 32L287.999 208.533M287.999 208.533L288 225.928C287.998 236.137 284.516 246.06 278.095 254.158C271.673 262.256 262.671 268.077 252.485 270.718C242.298 273.358 231.496 272.671 221.754 268.763C212.012 264.855 203.874 257.944 198.603 249.102C193.331 240.26 191.22 229.982 192.597 219.86C193.975 209.739 198.763 200.34 206.22 193.122C213.678 185.903 223.387 181.269 233.842 179.936C244.297 178.604 254.914 180.649 264.047 185.753C268.038 187.55 284.079 200.002 287.999 208.533Z" stroke="#582474" stroke-width="30" stroke-linecap="round" stroke-linejoin="round"/>
</svg>
